<?xml version="1.0" encoding="UTF-8" standalone="no"?>
<!DOCTYPE svg PUBLIC "-//W3C//DTD SVG 1.1//EN"
 "http://www.w3.org/Graphics/SVG/1.1/DTD/svg11.dtd">
<!-- Generated by graphviz version 14.1.2 (20260124.0452)
 -->
<!-- Title: HeapSecondary Pages: 1 -->
<svg width="583pt" height="394pt"
 viewBox="0.00 0.00 583.00 394.00" xmlns="http://www.w3.org/2000/svg" xmlns:xlink="http://www.w3.org/1999/xlink">
<g id="graph0" class="graph" transform="scale(1 1) rotate(0) translate(25.2 368.95)">
<title>HeapSecondary</title>
<polygon fill="white" stroke="none" points="-25.2,25.2 -25.2,-368.95 557.95,-368.95 557.95,25.2 -25.2,25.2"/>
<text xml:space="preserve" text-anchor="middle" x="266.38" y="-318.85" font-family="Helvetica,sans-Serif" font-size="22.00">Heap File + Secondary Index</text>
<!-- root -->
<g id="node1" class="node">
<title>root</title>
<polygon fill="#dceeff" stroke="none" points="201.38,-266 201.38,-313.25 359.62,-313.25 359.62,-266 201.38,-266"/>
<polygon fill="none" stroke="#3568a8" points="203.38,-289.25 203.38,-311.25 357.62,-311.25 357.62,-289.25 203.38,-289.25"/>
<text xml:space="preserve" text-anchor="start" x="243.75" y="-296.8" font-family="Helvetica,sans-Serif" font-size="10.00"> &#160;&#160;&#160;&#160;&#160;&#160;&#160;</text>
<text xml:space="preserve" text-anchor="start" x="267.75" y="-296.8" font-family="Helvetica,sans-Serif" font-weight="bold" font-size="11.00">Root</text>
<text xml:space="preserve" text-anchor="start" x="293.25" y="-296.8" font-family="Helvetica,sans-Serif" font-size="10.00"> &#160;&#160;&#160;&#160;&#160;&#160;&#160;</text>
<polygon fill="none" stroke="#3568a8" points="203.38,-268 203.38,-289.25 280.88,-289.25 280.88,-268 203.38,-268"/>
<text xml:space="preserve" text-anchor="start" x="208.38" y="-274.75" font-family="Helvetica,sans-Serif" font-size="10.00"> &#160;&#160;&#160;&#160;&#160;&#160;&#160;&lt; 25 &#160;&#160;&#160;&#160;&#160;&#160;&#160;</text>
<polygon fill="none" stroke="#3568a8" points="280.88,-268 280.88,-289.25 357.62,-289.25 357.62,-268 280.88,-268"/>
<text xml:space="preserve" text-anchor="start" x="285.88" y="-274.75" font-family="Helvetica,sans-Serif" font-size="10.00"> &#160;&#160;&#160;&#160;&#160;&#160;&#160;≥ 25 &#160;&#160;&#160;&#160;&#160;&#160;&#160;</text>
<polygon fill="none" stroke="#3568a8" stroke-width="2" points="202.38,-267 202.38,-312.25 358.62,-312.25 358.62,-267 202.38,-267"/>
</g>
<!-- leaf1 -->
<g id="node2" class="node">
<title>leaf1</title>
<polygon fill="#e4f4dc" stroke="none" points="28.25,-145 28.25,-201 240.75,-201 240.75,-145 28.25,-145"/>
<polygon fill="none" stroke="#558b3d" points="30.25,-177 30.25,-199 238.75,-199 238.75,-177 30.25,-177"/>
<text xml:space="preserve" text-anchor="start" x="99.25" y="-184.55" font-family="Helvetica,sans-Serif" font-size="10.00"> &#160;&#160;&#160;&#160;&#160;&#160;&#160;</text>
<text xml:space="preserve" text-anchor="start" x="123.25" y="-184.55" font-family="Helvetica,sans-Serif" font-weight="bold" font-size="11.00">Leaf</text>
<text xml:space="preserve" text-anchor="start" x="145.75" y="-184.55" font-family="Helvetica,sans-Serif" font-size="10.00"> &#160;&#160;&#160;&#160;&#160;&#160;&#160;</text>
<polygon fill="none" stroke="#558b3d" points="30.25,-147 30.25,-177 98,-177 98,-147 30.25,-147"/>
<text xml:space="preserve" text-anchor="start" x="46.88" y="-163.5" font-family="Helvetica,sans-Serif" font-size="10.00"> &#160;&#160;&#160;&#160;&#160;&#160;&#160;</text>
<text xml:space="preserve" text-anchor="start" x="70.88" y="-163.5" font-family="Helvetica,sans-Serif" font-weight="bold" font-size="10.00">10</text>
<text xml:space="preserve" text-anchor="start" x="35.25" y="-153.5" font-family="Helvetica,sans-Serif" font-size="10.00"> &#160;&#160;&#160;&#160;&#160;&#160;&#160;</text>
<text xml:space="preserve" text-anchor="start" x="59.25" y="-153.5" font-family="Helvetica,sans-Serif" font-size="8.00">ptr</text>
<text xml:space="preserve" text-anchor="start" x="69" y="-153.5" font-family="Helvetica,sans-Serif" font-size="10.00"> &#160;&#160;&#160;&#160;&#160;&#160;&#160;</text>
<polygon fill="none" stroke="#558b3d" points="98,-147 98,-177 165.75,-177 165.75,-147 98,-147"/>
<text xml:space="preserve" text-anchor="start" x="114.62" y="-163.5" font-family="Helvetica,sans-Serif" font-size="10.00"> &#160;&#160;&#160;&#160;&#160;&#160;&#160;</text>
<text xml:space="preserve" text-anchor="start" x="138.62" y="-163.5" font-family="Helvetica,sans-Serif" font-weight="bold" font-size="10.00">15</text>
<text xml:space="preserve" text-anchor="start" x="103" y="-153.5" font-family="Helvetica,sans-Serif" font-size="10.00"> &#160;&#160;&#160;&#160;&#160;&#160;&#160;</text>
<text xml:space="preserve" text-anchor="start" x="127" y="-153.5" font-family="Helvetica,sans-Serif" font-size="8.00">ptr</text>
<text xml:space="preserve" text-anchor="start" x="136.75" y="-153.5" font-family="Helvetica,sans-Serif" font-size="10.00"> &#160;&#160;&#160;&#160;&#160;&#160;&#160;</text>
<polygon fill="none" stroke="#558b3d" points="165.75,-147 165.75,-177 238.75,-177 238.75,-147 165.75,-147"/>
<text xml:space="preserve" text-anchor="start" x="170.75" y="-159.12" font-family="Helvetica,sans-Serif" font-size="10.00"> &#160;&#160;&#160;&#160;&#160;&#160;&#160;</text>
<text xml:space="preserve" text-anchor="start" x="194.75" y="-159.12" font-family="Helvetica,sans-Serif" font-size="8.00">next</text>
<text xml:space="preserve" text-anchor="start" x="209.75" y="-159.12" font-family="Helvetica,sans-Serif" font-size="10.00"> &#160;&#160;&#160;&#160;&#160;&#160;&#160;</text>
<polygon fill="none" stroke="#558b3d" stroke-width="2" points="29.25,-146 29.25,-200 239.75,-200 239.75,-146 29.25,-146"/>
</g>
<!-- leaf2 -->
<g id="node3" class="node">
<title>leaf2</title>
<polygon fill="#e4f4dc" stroke="none" points="320.25,-145 320.25,-201 532.75,-201 532.75,-145 320.25,-145"/>
<polygon fill="none" stroke="#558b3d" points="322.25,-177 322.25,-199 530.75,-199 530.75,-177 322.25,-177"/>
<text xml:space="preserve" text-anchor="start" x="391.25" y="-184.55" font-family="Helvetica,sans-Serif" font-size="10.00"> &#160;&#160;&#160;&#160;&#160;&#160;&#160;</text>
<text xml:space="preserve" text-anchor="start" x="415.25" y="-184.55" font-family="Helvetica,sans-Serif" font-weight="bold" font-size="11.00">Leaf</text>
<text xml:space="preserve" text-anchor="start" x="437.75" y="-184.55" font-family="Helvetica,sans-Serif" font-size="10.00"> &#160;&#160;&#160;&#160;&#160;&#160;&#160;</text>
<polygon fill="none" stroke="#558b3d" points="322.25,-147 322.25,-177 390,-177 390,-147 322.25,-147"/>
<text xml:space="preserve" text-anchor="start" x="338.88" y="-163.5" font-family="Helvetica,sans-Serif" font-size="10.00"> &#160;&#160;&#160;&#160;&#160;&#160;&#160;</text>
<text xml:space="preserve" text-anchor="start" x="362.88" y="-163.5" font-family="Helvetica,sans-Serif" font-weight="bold" font-size="10.00">25</text>
<text xml:space="preserve" text-anchor="start" x="327.25" y="-153.5" font-family="Helvetica,sans-Serif" font-size="10.00"> &#160;&#160;&#160;&#160;&#160;&#160;&#160;</text>
<text xml:space="preserve" text-anchor="start" x="351.25" y="-153.5" font-family="Helvetica,sans-Serif" font-size="8.00">ptr</text>
<text xml:space="preserve" text-anchor="start" x="361" y="-153.5" font-family="Helvetica,sans-Serif" font-size="10.00"> &#160;&#160;&#160;&#160;&#160;&#160;&#160;</text>
<polygon fill="none" stroke="#558b3d" points="390,-147 390,-177 457.75,-177 457.75,-147 390,-147"/>
<text xml:space="preserve" text-anchor="start" x="406.62" y="-163.5" font-family="Helvetica,sans-Serif" font-size="10.00"> &#160;&#160;&#160;&#160;&#160;&#160;&#160;</text>
<text xml:space="preserve" text-anchor="start" x="430.62" y="-163.5" font-family="Helvetica,sans-Serif" font-weight="bold" font-size="10.00">47</text>
<text xml:space="preserve" text-anchor="start" x="395" y="-153.5" font-family="Helvetica,sans-Serif" font-size="10.00"> &#160;&#160;&#160;&#160;&#160;&#160;&#160;</text>
<text xml:space="preserve" text-anchor="start" x="419" y="-153.5" font-family="Helvetica,sans-Serif" font-size="8.00">ptr</text>
<text xml:space="preserve" text-anchor="start" x="428.75" y="-153.5" font-family="Helvetica,sans-Serif" font-size="10.00"> &#160;&#160;&#160;&#160;&#160;&#160;&#160;</text>
<polygon fill="none" stroke="#558b3d" points="457.75,-147 457.75,-177 530.75,-177 530.75,-147 457.75,-147"/>
<text xml:space="preserve" text-anchor="start" x="462.75" y="-159.12" font-family="Helvetica,sans-Serif" font-size="10.00"> &#160;&#160;&#160;&#160;&#160;&#160;&#160;</text>
<text xml:space="preserve" text-anchor="start" x="486.75" y="-159.12" font-family="Helvetica,sans-Serif" font-size="8.00">next</text>
<text xml:space="preserve" text-anchor="start" x="501.75" y="-159.12" font-family="Helvetica,sans-Serif" font-size="10.00"> &#160;&#160;&#160;&#160;&#160;&#160;&#160;</text>
<polygon fill="none" stroke="#558b3d" stroke-width="2" points="321.25,-146 321.25,-200 531.75,-200 531.75,-146 321.25,-146"/>
</g>
<!-- heap -->
<g id="node4" class="node">
<title>heap</title>
<polygon fill="#fff4d6" stroke="none" points="0,0 0,-80 489,-80 489,0 0,0"/>
<polygon fill="none" stroke="#ca8a04" points="2,-46 2,-78 487,-78 487,-46 2,-46"/>
<text xml:space="preserve" text-anchor="start" x="139.5" y="-58.55" font-family="Helvetica,sans-Serif" font-size="10.00"> &#160;&#160;&#160;&#160;&#160;&#160;&#160;</text>
<text xml:space="preserve" text-anchor="start" x="163.5" y="-58.55" font-family="Helvetica,sans-Serif" font-size="11.00"> &#160;&#160;&#160;&#160;&#160;&#160;&#160;</text>
<text xml:space="preserve" text-anchor="start" x="187.5" y="-58.55" font-family="Helvetica,sans-Serif" font-weight="bold" font-size="11.00">Heap File (unordered)</text>
<text xml:space="preserve" text-anchor="start" x="301.5" y="-58.55" font-family="Helvetica,sans-Serif" font-size="11.00"> &#160;&#160;&#160;&#160;&#160;&#160;&#160;</text>
<text xml:space="preserve" text-anchor="start" x="325.5" y="-58.55" font-family="Helvetica,sans-Serif" font-size="10.00"> &#160;&#160;&#160;&#160;&#160;&#160;&#160;</text>
<polygon fill="none" stroke="#ca8a04" points="2,-2 2,-46 123.25,-46 123.25,-2 2,-2"/>
<text xml:space="preserve" text-anchor="start" x="12" y="-21.12" font-family="Helvetica,sans-Serif" font-size="10.00"> &#160;&#160;&#160;&#160;&#160;&#160;&#160;Row id = </text>
<text xml:space="preserve" text-anchor="start" x="78.75" y="-21.12" font-family="Helvetica,sans-Serif" font-weight="bold" font-size="10.00">25</text>
<text xml:space="preserve" text-anchor="start" x="89.25" y="-21.12" font-family="Helvetica,sans-Serif" font-size="10.00"> &#160;&#160;&#160;&#160;&#160;&#160;&#160;</text>
<polygon fill="none" stroke="#ca8a04" points="123.25,-2 123.25,-46 244.5,-46 244.5,-2 123.25,-2"/>
<text xml:space="preserve" text-anchor="start" x="133.25" y="-21.12" font-family="Helvetica,sans-Serif" font-size="10.00"> &#160;&#160;&#160;&#160;&#160;&#160;&#160;Row id = </text>
<text xml:space="preserve" text-anchor="start" x="200" y="-21.12" font-family="Helvetica,sans-Serif" font-weight="bold" font-size="10.00">10</text>
<text xml:space="preserve" text-anchor="start" x="210.5" y="-21.12" font-family="Helvetica,sans-Serif" font-size="10.00"> &#160;&#160;&#160;&#160;&#160;&#160;&#160;</text>
<polygon fill="none" stroke="#ca8a04" points="244.5,-2 244.5,-46 365.75,-46 365.75,-2 244.5,-2"/>
<text xml:space="preserve" text-anchor="start" x="254.5" y="-21.12" font-family="Helvetica,sans-Serif" font-size="10.00"> &#160;&#160;&#160;&#160;&#160;&#160;&#160;Row id = </text>
<text xml:space="preserve" text-anchor="start" x="321.25" y="-21.12" font-family="Helvetica,sans-Serif" font-weight="bold" font-size="10.00">47</text>
<text xml:space="preserve" text-anchor="start" x="331.75" y="-21.12" font-family="Helvetica,sans-Serif" font-size="10.00"> &#160;&#160;&#160;&#160;&#160;&#160;&#160;</text>
<polygon fill="none" stroke="#ca8a04" points="365.75,-2 365.75,-46 487,-46 487,-2 365.75,-2"/>
<text xml:space="preserve" text-anchor="start" x="375.75" y="-21.12" font-family="Helvetica,sans-Serif" font-size="10.00"> &#160;&#160;&#160;&#160;&#160;&#160;&#160;Row id = </text>
<text xml:space="preserve" text-anchor="start" x="442.5" y="-21.12" font-family="Helvetica,sans-Serif" font-weight="bold" font-size="10.00">15</text>
<text xml:space="preserve" text-anchor="start" x="453" y="-21.12" font-family="Helvetica,sans-Serif" font-size="10.00"> &#160;&#160;&#160;&#160;&#160;&#160;&#160;</text>
<polygon fill="none" stroke="#ca8a04" stroke-width="2" points="1,-1 1,-79 488,-79 488,-1 1,-1"/>
</g>
<!-- root&#45;&gt;leaf1 -->
<g id="edge1" class="edge">
<title>root:s&#45;&gt;leaf1:n</title>
<path fill="none" stroke="#444444" stroke-width="1.35" d="M242.12,-267C242.12,-267 166.21,-220.45 141.9,-205.54"/>
<polygon fill="#444444" stroke="#444444" stroke-width="1.35" points="143.49,-203.64 136.24,-202.07 140.93,-207.82 143.49,-203.64"/>
</g>
<!-- root&#45;&gt;leaf2 -->
<g id="edge2" class="edge">
<title>root:s&#45;&gt;leaf2:n</title>
<path fill="none" stroke="#444444" stroke-width="1.35" d="M319.25,-267C319.25,-267 394.9,-220.45 419.13,-205.54"/>
<polygon fill="#444444" stroke="#444444" stroke-width="1.35" points="420.08,-207.83 424.76,-202.07 417.51,-203.65 420.08,-207.83"/>
</g>
<!-- leaf1&#45;&gt;leaf2 -->
<g id="edge3" class="edge">
<title>leaf1:e&#45;&gt;leaf2:w</title>
<path fill="none" stroke="#777777" stroke-width="1.1" stroke-dasharray="5,2" d="M239.75,-162C239.75,-162 287.52,-162 309.92,-162"/>
<polygon fill="#777777" stroke="#777777" stroke-width="1.1" points="313.09,-164.28 319.59,-162 313.09,-159.73 313.09,-164.28"/>
</g>
<!-- leaf1&#45;&gt;leaf2 -->
<!-- leaf1&#45;&gt;heap -->
<g id="edge4" class="edge">
<title>leaf1:s&#45;&gt;heap:n</title>
<path fill="none" stroke="#666666" stroke-width="1.35" stroke-dasharray="5,2" d="M64.12,-146C64.12,-146 148.59,-76.17 175.64,-53.8"/>
<polygon fill="#666666" stroke="#666666" stroke-width="1.35" points="182.61,-48.05 178.01,-57.4 180.33,-50.16 175.4,-54.24 175.29,-54.1 175.17,-53.97 180.1,-49.89 172.56,-50.81 182.61,-48.05"/>
</g>
<!-- leaf1&#45;&gt;heap -->
<g id="edge5" class="edge">
<title>leaf1:s&#45;&gt;heap:n</title>
<path fill="none" stroke="#666666" stroke-width="1.35" stroke-dasharray="5,2" d="M131.88,-146C131.88,-146 363.43,-68.16 415.89,-50.52"/>
<polygon fill="#666666" stroke="#666666" stroke-width="1.35" points="424.82,-47.52 417.17,-54.6 421.93,-48.68 415.87,-50.72 415.81,-50.55 415.76,-50.39 421.82,-48.35 414.45,-46.5 424.82,-47.52"/>
</g>
<!-- leaf2&#45;&gt;heap -->
<g id="edge6" class="edge">
<title>leaf2:s&#45;&gt;heap:n</title>
<path fill="none" stroke="#666666" stroke-width="1.35" stroke-dasharray="5,2" d="M356.12,-146C356.12,-146 125.35,-68.16 73.07,-50.52"/>
<polygon fill="#666666" stroke="#666666" stroke-width="1.35" points="64.18,-47.53 74.55,-46.51 67.18,-48.35 73.24,-50.4 73.19,-50.56 73.13,-50.73 67.07,-48.68 71.82,-54.61 64.18,-47.53"/>
</g>
<!-- leaf2&#45;&gt;heap -->
<g id="edge7" class="edge">
<title>leaf2:s&#45;&gt;heap:n</title>
<path fill="none" stroke="#666666" stroke-width="1.35" stroke-dasharray="5,2" d="M423.88,-146C423.88,-146 340.89,-76.82 313.67,-54.12"/>
<polygon fill="#666666" stroke="#666666" stroke-width="1.35" points="306.39,-48.05 316.42,-50.85 308.89,-49.91 313.8,-54 313.69,-54.14 313.57,-54.27 308.66,-50.18 310.95,-57.42 306.39,-48.05"/>
</g>
</g>
</svg>
