<?xml version="1.0" encoding="UTF-8" standalone="no"?>
<!DOCTYPE svg PUBLIC "-//W3C//DTD SVG 1.1//EN"
 "http://www.w3.org/Graphics/SVG/1.1/DTD/svg11.dtd">
<!-- Generated by graphviz version 14.1.2 (20260124.0452)
 -->
<!-- Title: SecondaryOverClustered Pages: 1 -->
<svg width="448pt" height="264pt"
 viewBox="0.00 0.00 448.00 264.00" xmlns="http://www.w3.org/2000/svg" xmlns:xlink="http://www.w3.org/1999/xlink">
<g id="graph0" class="graph" transform="scale(1 1) rotate(0) translate(4 259.85)">
<title>SecondaryOverClustered</title>
<polygon fill="white" stroke="none" points="-4,4 -4,-259.85 444,-259.85 444,4 -4,4"/>
<text xml:space="preserve" text-anchor="middle" x="220" y="-237.6" font-family="Helvetica,sans-Serif" font-size="15.00">Secondary Index on Top of a Clustered Index (InnoDB)</text>
<g id="clust1" class="cluster">
<title>cluster_sec</title>
<polygon fill="white" stroke="#999999" stroke-dasharray="5,2" points="8,-62.85 8,-224.1 156,-224.1 156,-62.85 8,-62.85"/>
<text xml:space="preserve" text-anchor="middle" x="82" y="-209.65" font-family="Helvetica,sans-Serif" font-size="11.00">Secondary Index (on email)</text>
</g>
<g id="clust2" class="cluster">
<title>cluster_clu</title>
<polygon fill="white" stroke="#999999" stroke-dasharray="5,2" points="200,-62.85 200,-224.1 432,-224.1 432,-62.85 200,-62.85"/>
<text xml:space="preserve" text-anchor="middle" x="316" y="-209.65" font-family="Helvetica,sans-Serif" font-size="11.00">Clustered Index / IOT (Primary Key B+&#45;Tree)</text>
</g>
<!-- sroot -->
<g id="node1" class="node">
<title>sroot</title>
<polygon fill="#dae8fc" stroke="none" points="52.88,-159.6 52.88,-196.1 111.12,-196.1 111.12,-159.6 52.88,-159.6"/>
<polygon fill="none" stroke="#6c8ebf" points="53.88,-177.85 53.88,-195.1 110.12,-195.1 110.12,-177.85 53.88,-177.85"/>
<text xml:space="preserve" text-anchor="start" x="71.5" y="-182.6" font-family="Helvetica,sans-Serif" font-size="10.00">Root</text>
<polygon fill="none" stroke="#6c8ebf" points="53.88,-160.6 53.88,-177.85 110.12,-177.85 110.12,-160.6 53.88,-160.6"/>
<text xml:space="preserve" text-anchor="start" x="56.88" y="-165.35" font-family="Helvetica,sans-Serif" font-size="10.00">email range</text>
<polygon fill="none" stroke="#6c8ebf" points="52.88,-159.6 52.88,-196.1 111.12,-196.1 111.12,-159.6 52.88,-159.6"/>
</g>
<!-- sleaf -->
<g id="node2" class="node">
<title>sleaf</title>
<polygon fill="#dae8fc" stroke="none" points="24.75,-70.85 24.75,-118.6 139.25,-118.6 139.25,-70.85 24.75,-70.85"/>
<polygon fill="none" stroke="#6c8ebf" points="25.75,-100.35 25.75,-117.6 138.25,-117.6 138.25,-100.35 25.75,-100.35"/>
<text xml:space="preserve" text-anchor="start" x="32.88" y="-105.1" font-family="Helvetica,sans-Serif" font-size="10.00">Leaf Page (secondary)</text>
<polygon fill="none" stroke="#6c8ebf" points="25.75,-71.85 25.75,-100.35 79.75,-100.35 79.75,-71.85 25.75,-71.85"/>
<text xml:space="preserve" text-anchor="start" x="28.75" y="-87.85" font-family="Helvetica,sans-Serif" font-size="10.00">bob@a.org</text>
<text xml:space="preserve" text-anchor="start" x="31.75" y="-76.6" font-family="Helvetica,sans-Serif" font-size="10.00">&#45;&gt; PK=10</text>
<polygon fill="none" stroke="#6c8ebf" points="79.75,-71.85 79.75,-100.35 138.25,-100.35 138.25,-71.85 79.75,-71.85"/>
<text xml:space="preserve" text-anchor="start" x="82.75" y="-87.85" font-family="Helvetica,sans-Serif" font-size="10.00">alice@a.org</text>
<text xml:space="preserve" text-anchor="start" x="88" y="-76.6" font-family="Helvetica,sans-Serif" font-size="10.00">&#45;&gt; PK=25</text>
<polygon fill="none" stroke="#6c8ebf" points="24.75,-70.85 24.75,-118.6 139.25,-118.6 139.25,-70.85 24.75,-70.85"/>
</g>
<!-- sroot&#45;&gt;sleaf -->
<g id="edge1" class="edge">
<title>sroot:p0&#45;&gt;sleaf</title>
<path fill="none" stroke="black" d="M82,-159.6C82,-149.9 82,-139.38 82,-129.72"/>
<polygon fill="black" stroke="black" points="85.5,-130 82,-120 78.5,-130 85.5,-130"/>
</g>
<!-- cleaf -->
<g id="node4" class="node">
<title>cleaf</title>
<polygon fill="#d5e8d4" stroke="none" points="234,-70.85 234,-118.6 350,-118.6 350,-70.85 234,-70.85"/>
<polygon fill="none" stroke="#82b366" points="235,-100.35 235,-117.6 349,-117.6 349,-100.35 235,-100.35"/>
<text xml:space="preserve" text-anchor="start" x="245.5" y="-105.1" font-family="Helvetica,sans-Serif" font-size="10.00">Leaf Page (clustered)</text>
<polygon fill="none" stroke="#82b366" points="235,-71.85 235,-100.35 292,-100.35 292,-71.85 235,-71.85"/>
<text xml:space="preserve" text-anchor="start" x="248.5" y="-87.85" font-family="Helvetica,sans-Serif" font-size="10.00">PK=10</text>
<text xml:space="preserve" text-anchor="start" x="238" y="-76.6" font-family="Helvetica,sans-Serif" font-size="10.00">FULL ROW</text>
<polygon fill="none" stroke="#82b366" points="292,-71.85 292,-100.35 349,-100.35 349,-71.85 292,-71.85"/>
<text xml:space="preserve" text-anchor="start" x="305.5" y="-87.85" font-family="Helvetica,sans-Serif" font-size="10.00">PK=25</text>
<text xml:space="preserve" text-anchor="start" x="295" y="-76.6" font-family="Helvetica,sans-Serif" font-size="10.00">FULL ROW</text>
<polygon fill="none" stroke="#82b366" points="234,-70.85 234,-118.6 350,-118.6 350,-70.85 234,-70.85"/>
</g>
<!-- sleaf&#45;&gt;cleaf -->
<g id="edge3" class="edge">
<title>sleaf:s&#45;&gt;cleaf:s</title>
<path fill="none" stroke="#b85450" stroke-width="1.5" d="M52.75,-70.85C52.75,-27.86 230.34,-24.33 259.48,-60.27"/>
<polygon fill="#b85450" stroke="#b85450" stroke-width="1.5" points="255.87,-60.62 262.69,-68.73 262.41,-58.14 255.87,-60.62"/>
<text xml:space="preserve" text-anchor="middle" x="186.62" y="-41.27" font-family="Times,serif" font-size="9.00">second lookup</text>
</g>
<!-- sleaf&#45;&gt;cleaf -->
<g id="edge4" class="edge">
<title>sleaf:s&#45;&gt;cleaf:s</title>
<path fill="none" stroke="#b85450" stroke-width="1.5" d="M109,-70.85C109,19.2 303.11,22.99 319.41,-59.5"/>
<polygon fill="#b85450" stroke="#b85450" stroke-width="1.5" points="315.84,-58.97 320.28,-68.59 322.81,-58.3 315.84,-58.97"/>
<text xml:space="preserve" text-anchor="middle" x="186.62" y="-9.52" font-family="Times,serif" font-size="9.00">second lookup</text>
</g>
<!-- croot -->
<g id="node3" class="node">
<title>croot</title>
<polygon fill="#d5e8d4" stroke="none" points="267.75,-159.6 267.75,-196.1 316.25,-196.1 316.25,-159.6 267.75,-159.6"/>
<polygon fill="none" stroke="#82b366" points="268.75,-177.85 268.75,-195.1 315.25,-195.1 315.25,-177.85 268.75,-177.85"/>
<text xml:space="preserve" text-anchor="start" x="281.5" y="-182.6" font-family="Helvetica,sans-Serif" font-size="10.00">Root</text>
<polygon fill="none" stroke="#82b366" points="268.75,-160.6 268.75,-177.85 315.25,-177.85 315.25,-160.6 268.75,-160.6"/>
<text xml:space="preserve" text-anchor="start" x="271.75" y="-165.35" font-family="Helvetica,sans-Serif" font-size="10.00">PK range</text>
<polygon fill="none" stroke="#82b366" points="267.75,-159.6 267.75,-196.1 316.25,-196.1 316.25,-159.6 267.75,-159.6"/>
</g>
<!-- croot&#45;&gt;cleaf -->
<g id="edge2" class="edge">
<title>croot:p0&#45;&gt;cleaf</title>
<path fill="none" stroke="black" d="M292,-159.6C292,-149.9 292,-139.38 292,-129.72"/>
<polygon fill="black" stroke="black" points="295.5,-130 292,-120 288.5,-130 295.5,-130"/>
</g>
</g>
</svg>
